<svg id="assisten_conditioning" xmlns="http://www.w3.org/2000/svg" width="23.135" height="24.85" viewBox="0 0 23.135 24.85">
  <path id="Path_40" data-name="Path 40" d="M66.875,48.593a.505.505,0,0,0,.338-.881L62,43.006,56.15,37.724a.505.505,0,0,0-.677,0l-4.178,3.768V39.7a.505.505,0,0,0-.505-.505H48.221a.505.505,0,0,0-.505.505V44.73l-3.3,2.98a.505.505,0,0,0,.331.883h1.774V61.937a.506.506,0,0,0,.505.506H64.6a.506.506,0,0,0,.505-.506V48.593Z" transform="translate(-44.246 -37.594)" fill="#4b4b4b"/>
  <path id="Path_41" data-name="Path 41" d="M129.353,112.661a.223.223,0,0,1-.223-.223v-6.121a.224.224,0,0,1,.448,0v6.121A.224.224,0,0,1,129.353,112.661Z" transform="translate(-117.788 -96.955)" fill="#fff"/>
  <path id="Path_42" data-name="Path 42" d="M129.357,109.78a.223.223,0,0,1-.194-.333l.881-1.562a.224.224,0,0,1,.39.22l-.882,1.561a.222.222,0,0,1-.2.114Z" transform="translate(-117.792 -98.404)" fill="#fff"/>
  <path id="Path_43" data-name="Path 43" d="M129.719,135.353a.166.166,0,0,1-.118-.048.168.168,0,0,1,0-.238l.448-.445a.167.167,0,0,1,.236.237l-.448.446A.167.167,0,0,1,129.719,135.353Z" transform="translate(-118.154 -121.616)" fill="#fff"/>
  <path id="Path_44" data-name="Path 44" d="M129.353,122.647a.218.218,0,0,1-.134-.045.222.222,0,0,1-.044-.313l.819-1.086a.223.223,0,1,1,.357.267l-.819,1.09A.226.226,0,0,1,129.353,122.647Z" transform="translate(-117.788 -109.946)" fill="#fff"/>
  <path id="Path_45" data-name="Path 45" d="M124.005,122.665a.226.226,0,0,1-.179-.088l-.819-1.086a.223.223,0,1,1,.357-.267l.819,1.086a.222.222,0,0,1-.044.313A.218.218,0,0,1,124.005,122.665Z" transform="translate(-112.439 -109.964)" fill="#fff"/>
  <path id="Path_46" data-name="Path 46" d="M126.818,135.353a.166.166,0,0,1-.118-.048l-.448-.446a.167.167,0,0,1,.236-.237l.448.445a.167.167,0,0,1-.119.286Z" transform="translate(-115.253 -121.616)" fill="#fff"/>
  <path id="Path_47" data-name="Path 47" d="M123.5,109.536a.224.224,0,0,1-.2-.112l-.9-1.589a.223.223,0,1,1,.389-.22l.9,1.585a.222.222,0,0,1-.084.3A.218.218,0,0,1,123.5,109.536Z" transform="translate(-111.936 -98.161)" fill="#fff"/>
  <path id="Path_48" data-name="Path 48" d="M129.349,158.253a.223.223,0,0,1-.223-.223V151.9a.224.224,0,1,1,.448,0v6.121a.225.225,0,0,1-.224.23Z" transform="translate(-117.784 -136.419)" fill="#fff"/>
  <path id="Path_49" data-name="Path 49" d="M122.758,186.21a.218.218,0,0,1-.11-.029.222.222,0,0,1-.086-.3l.882-1.562a.223.223,0,0,1,.389.22l-.881,1.561A.223.223,0,0,1,122.758,186.21Z" transform="translate(-112.074 -164.613)" fill="#fff"/>
  <path id="Path_50" data-name="Path 50" d="M126.371,167.359a.163.163,0,0,1-.119-.049.167.167,0,0,1,0-.237l.448-.446a.168.168,0,0,1,.236.238l-.448.446A.166.166,0,0,1,126.371,167.359Z" transform="translate(-115.252 -149.353)" fill="#fff"/>
  <path id="Path_51" data-name="Path 51" d="M123.223,175.87a.223.223,0,0,1-.178-.358l.819-1.086a.223.223,0,0,1,.357.267l-.82,1.088A.223.223,0,0,1,123.223,175.87Z" transform="translate(-112.477 -156.073)" fill="#fff"/>
  <path id="Path_52" data-name="Path 52" d="M130.135,175.8a.223.223,0,0,1-.179-.09l-.819-1.081a.223.223,0,1,1,.357-.267l.819,1.086a.223.223,0,0,1-.178.358Z" transform="translate(-117.75 -156.003)" fill="#fff"/>
  <path id="Path_53" data-name="Path 53" d="M130.228,167.359a.166.166,0,0,1-.118-.048l-.448-.446a.168.168,0,0,1,.237-.238l.448.446a.167.167,0,0,1,0,.236A.163.163,0,0,1,130.228,167.359Z" transform="translate(-118.216 -149.353)" fill="#fff"/>
  <path id="Path_54" data-name="Path 54" d="M130.258,186.234a.223.223,0,0,1-.194-.112l-.9-1.586a.223.223,0,1,1,.389-.22l.9,1.585a.224.224,0,0,1-.084.3A.219.219,0,0,1,130.258,186.234Z" transform="translate(-117.79 -164.613)" fill="#fff"/>
  <path id="Path_55" data-name="Path 55" d="M129.354,124.243a.224.224,0,0,1-.158-.382l4.326-4.328a.224.224,0,0,1,.317.317l-4.325,4.328A.223.223,0,0,1,129.354,124.243Z" transform="translate(-117.789 -108.537)" fill="#fff"/>
  <path id="Path_56" data-name="Path 56" d="M152.29,126.229a.224.224,0,0,1-.06-.44l1.728-.481a.224.224,0,0,1,.12.432l-1.728.48A.236.236,0,0,1,152.29,126.229Z" transform="translate(-137.662 -113.584)" fill="#fff"/>
  <path id="Path_57" data-name="Path 57" d="M140.469,142.445h-.632a.17.17,0,0,1-.167-.168.167.167,0,0,1,.167-.167h.632a.168.168,0,0,1,0,.335Z" transform="translate(-126.92 -128.145)" fill="#fff"/>
  <path id="Path_58" data-name="Path 58" d="M145.2,135.119a.223.223,0,0,1-.031-.445l1.348-.188a.223.223,0,0,1,.061.442l-1.347.188Z" transform="translate(-131.515 -121.538)" fill="#fff"/>
  <path id="Path_59" data-name="Path 59" d="M145.257,127.621h-.032a.223.223,0,0,1-.19-.253l.188-1.347a.223.223,0,1,1,.442.061l-.188,1.348A.223.223,0,0,1,145.257,127.621Z" transform="translate(-131.566 -114.039)" fill="#fff"/>
  <path id="Path_60" data-name="Path 60" d="M139.837,138.337a.167.167,0,0,1-.167-.168v-.631a.167.167,0,0,1,.167-.168h0a.168.168,0,0,1,.168.167v.632a.17.17,0,0,1-.167.168Z" transform="translate(-126.92 -124.038)" fill="#fff"/>
  <path id="Path_61" data-name="Path 61" d="M152.283,118.062a.187.187,0,0,1-.059-.009.222.222,0,0,1-.156-.267l.482-1.76a.224.224,0,0,1,.432.119L152.5,117.9a.224.224,0,0,1-.216.164Z" transform="translate(-137.655 -105.417)" fill="#fff"/>
  <path id="Path_62" data-name="Path 62" d="M96.965,156.633a.223.223,0,0,1-.158-.381l4.328-4.329a.224.224,0,0,1,.317.317l-4.328,4.322A.223.223,0,0,1,96.965,156.633Z" transform="translate(-89.727 -136.6)" fill="#fff"/>
  <path id="Path_63" data-name="Path 63" d="M93.547,175.635a.223.223,0,0,1-.06-.438l1.728-.481a.223.223,0,0,1,.12.43l-1.728.481A.233.233,0,0,1,93.547,175.635Z" transform="translate(-86.766 -156.387)" fill="#fff"/>
  <path id="Path_64" data-name="Path 64" d="M115.632,162.665h-.627a.168.168,0,0,1,0-.335h.632a.168.168,0,0,1,0,.335Z" transform="translate(-105.418 -145.663)" fill="#fff"/>
  <path id="Path_65" data-name="Path 65" d="M103.324,168.329a.223.223,0,0,1-.031-.445l1.347-.188a.223.223,0,1,1,.063.442l-1.348.19Z" transform="translate(-95.23 -150.31)" fill="#fff"/>
  <path id="Path_66" data-name="Path 66" d="M112.046,169.511h-.031a.223.223,0,0,1-.19-.253l.188-1.347a.223.223,0,0,1,.442.061l-.188,1.347A.224.224,0,0,1,112.046,169.511Z" transform="translate(-102.794 -150.332)" fill="#fff"/>
  <path id="Path_67" data-name="Path 67" d="M119.608,163.3a.168.168,0,0,1-.168-.167V162.5a.167.167,0,0,1,.167-.168h0a.167.167,0,0,1,.167.167v.632a.167.167,0,0,1-.167.167Z" transform="translate(-109.393 -145.663)" fill="#fff"/>
  <path id="Path_68" data-name="Path 68" d="M102.842,176.96a.179.179,0,0,1-.059-.008.222.222,0,0,1-.156-.267l.481-1.76a.224.224,0,0,1,.275-.156.222.222,0,0,1,.156.267l-.482,1.761A.22.22,0,0,1,102.842,176.96Z" transform="translate(-94.821 -156.433)" fill="#fff"/>
  <path id="Path_69" data-name="Path 69" d="M101.214,124.1a.223.223,0,0,1-.158-.065l-4.328-4.328a.224.224,0,1,1,.317-.317l4.329,4.328a.224.224,0,0,1-.159.382Z" transform="translate(-89.649 -108.393)" fill="#fff"/>
  <path id="Path_70" data-name="Path 70" d="M103.323,118.128a.223.223,0,0,1-.215-.163l-.481-1.728a.223.223,0,1,1,.43-.119l.481,1.726a.223.223,0,0,1-.155.275A.232.232,0,0,1,103.323,118.128Z" transform="translate(-94.82 -105.484)" fill="#fff"/>
  <path id="Path_71" data-name="Path 71" d="M119.607,138.336h0a.167.167,0,0,1-.167-.167v-.632a.17.17,0,0,1,.168-.167h0a.166.166,0,0,1,.167.168v.631a.166.166,0,0,1-.168.167Z" transform="translate(-109.393 -124.038)" fill="#fff"/>
  <path id="Path_72" data-name="Path 72" d="M112.235,127.6a.224.224,0,0,1-.22-.192l-.188-1.348a.223.223,0,1,1,.442-.061l.188,1.347a.223.223,0,0,1-.19.253Z" transform="translate(-102.794 -114.022)" fill="#fff"/>
  <path id="Path_73" data-name="Path 73" d="M104.72,135.137h-.032l-1.347-.188a.223.223,0,1,1,.061-.442l1.348.188a.223.223,0,0,1-.031.445Z" transform="translate(-95.279 -121.555)" fill="#fff"/>
  <path id="Path_74" data-name="Path 74" d="M114.917,142.444a.167.167,0,1,1,0-.334h.632a.167.167,0,1,1,0,.334Z" transform="translate(-105.33 -128.145)" fill="#fff"/>
  <path id="Path_75" data-name="Path 75" d="M95.08,126.211a.216.216,0,0,1-.059-.008l-1.76-.482a.223.223,0,0,1,.118-.43l1.76.482a.223.223,0,0,1-.059.438Z" transform="translate(-86.576 -113.568)" fill="#fff"/>
  <path id="Path_76" data-name="Path 76" d="M133.742,156.6a.223.223,0,0,1-.16-.071l-4.328-4.328a.224.224,0,0,1,.317-.317l4.328,4.329a.223.223,0,0,1-.158.381Z" transform="translate(-117.848 -136.565)" fill="#fff"/>
  <path id="Path_77" data-name="Path 77" d="M152.752,176.9a.222.222,0,0,1-.215-.163l-.481-1.728a.223.223,0,1,1,.43-.12l.481,1.728a.223.223,0,0,1-.155.275A.232.232,0,0,1,152.752,176.9Z" transform="translate(-137.644 -156.405)" fill="#fff"/>
  <path id="Path_78" data-name="Path 78" d="M139.827,163.3h0a.166.166,0,0,1-.167-.167V162.5a.167.167,0,0,1,.167-.167h0a.167.167,0,0,1,.167.168v.631A.168.168,0,0,1,139.827,163.3Z" transform="translate(-126.911 -145.663)" fill="#fff"/>
  <path id="Path_79" data-name="Path 79" d="M145.446,169.493a.224.224,0,0,1-.222-.192l-.188-1.348a.223.223,0,0,1,.442-.061l.188,1.347a.223.223,0,0,1-.19.253Z" transform="translate(-131.567 -150.315)" fill="#fff"/>
  <path id="Path_80" data-name="Path 80" d="M146.6,168.311h-.031l-1.348-.194a.223.223,0,1,1,.063-.442l1.344.191a.223.223,0,0,1-.031.445Z" transform="translate(-131.566 -150.293)" fill="#fff"/>
  <path id="Path_81" data-name="Path 81" d="M139.926,162.665a.168.168,0,0,1,0-.335h.632a.168.168,0,0,1,0,.335Z" transform="translate(-127.008 -145.663)" fill="#fff"/>
  <path id="Path_82" data-name="Path 82" d="M154.029,175.641a.224.224,0,0,1-.059-.008l-1.76-.482a.224.224,0,1,1,.118-.432l1.76.482a.224.224,0,0,1-.059.44Z" transform="translate(-137.642 -156.39)" fill="#fff"/>
  <path id="Path_83" data-name="Path 83" d="M89.552,152.233h-6.12a.224.224,0,1,1,0-.448h6.12a.224.224,0,1,1,0,.448Z" transform="translate(-77.987 -136.527)" fill="#fff"/>
  <path id="Path_84" data-name="Path 84" d="M86.9,146.562a.218.218,0,0,1-.11-.029l-1.562-.881a.224.224,0,0,1,.22-.39l1.561.881a.223.223,0,0,1-.11.418Z" transform="translate(-79.661 -130.856)" fill="#fff"/>
  <path id="Path_85" data-name="Path 85" d="M112.582,149.707a.164.164,0,0,1-.119-.049l-.446-.448a.168.168,0,0,1,.238-.237l.446.448a.167.167,0,0,1,0,.237A.162.162,0,0,1,112.582,149.707Z" transform="translate(-102.928 -134.057)" fill="#fff"/>
  <path id="Path_86" data-name="Path 86" d="M99.773,146.889a.222.222,0,0,1-.134-.045l-1.086-.819a.223.223,0,1,1,.267-.357l1.086.819a.224.224,0,0,1-.134.4Z" transform="translate(-91.211 -131.183)" fill="#fff"/>
  <path id="Path_87" data-name="Path 87" d="M98.752,153.112a.223.223,0,0,1-.134-.4l1.086-.819a.223.223,0,0,1,.267.357l-1.086.82A.232.232,0,0,1,98.752,153.112Z" transform="translate(-91.277 -136.587)" fill="#fff"/>
  <path id="Path_88" data-name="Path 88" d="M112.079,153.057a.166.166,0,0,1-.118-.048.168.168,0,0,1,0-.238l.446-.448a.168.168,0,0,1,.238.236l-.446.448A.163.163,0,0,1,112.079,153.057Z" transform="translate(-102.871 -136.959)" fill="#fff"/>
  <path id="Path_89" data-name="Path 89" d="M85.076,153.183a.223.223,0,0,1-.111-.418l1.585-.9a.224.224,0,0,1,.222.389l-1.586.9A.217.217,0,0,1,85.076,153.183Z" transform="translate(-79.425 -136.574)" fill="#fff"/>
  <path id="Path_90" data-name="Path 90" d="M135.578,152.233h-6.121a.224.224,0,0,1,0-.448h6.121a.224.224,0,1,1,0,.448Z" transform="translate(-117.892 -136.527)" fill="#fff"/>
  <path id="Path_91" data-name="Path 91" d="M163.384,153.159a.222.222,0,0,1-.11-.029l-1.561-.882a.223.223,0,0,1,.215-.39l1.562.882a.223.223,0,0,1-.111.418Z" transform="translate(-145.928 -136.572)" fill="#fff"/>
  <path id="Path_92" data-name="Path 92" d="M144.532,153.057a.163.163,0,0,1-.119-.049l-.446-.448a.168.168,0,0,1,.238-.236l.446.448a.168.168,0,0,1,0,.238A.166.166,0,0,1,144.532,153.057Z" transform="translate(-130.609 -136.959)" fill="#fff"/>
  <path id="Path_93" data-name="Path 93" d="M152.986,153.1a.233.233,0,0,1-.134-.044l-1.086-.82a.223.223,0,0,1,.267-.357l1.086.819a.223.223,0,0,1-.134.4Z" transform="translate(-137.33 -136.578)" fill="#fff"/>
  <path id="Path_94" data-name="Path 94" d="M151.868,146.9a.224.224,0,0,1-.134-.4l1.086-.819a.223.223,0,1,1,.267.357l-1.086.819A.222.222,0,0,1,151.868,146.9Z" transform="translate(-137.298 -131.191)" fill="#fff"/>
  <path id="Path_95" data-name="Path 95" d="M144.029,149.707a.166.166,0,0,1-.118-.048.168.168,0,0,1,0-.238l.446-.448a.168.168,0,0,1,.238.237l-.448.448A.164.164,0,0,1,144.029,149.707Z" transform="translate(-130.552 -134.057)" fill="#fff"/>
  <path id="Path_96" data-name="Path 96" d="M161.77,146.431a.224.224,0,0,1-.111-.418l1.586-.9a.224.224,0,0,1,.222.389l-1.591.9A.219.219,0,0,1,161.77,146.431Z" transform="translate(-145.875 -130.725)" fill="#fff"/>
</svg>
