<svg xmlns="http://www.w3.org/2000/svg" width="45.86" height="52.28" viewBox="0 0 45.86 52.28">
  <g id="assisten_behavioral-02" transform="translate(-51.362 -37.11)">
    <path id="Path_153" data-name="Path 153" d="M95.546,68.676a2.18,2.18,0,0,0-1.5.662A2.258,2.258,0,0,0,94,70.87a2.159,2.159,0,0,1,.225,1.279,9.378,9.378,0,0,0-.354.992,3.63,3.63,0,0,1,.1.75,1.532,1.532,0,0,1-.452,1.137c-.17.185-.464.264-.5.813C93.5,80.1,92.449,82.258,86.517,82c-.864-.037-4.777.415-4.86,1.551-.046.71.049,3.694.049,3.694a2.16,2.16,0,0,1-2.172,2.142h-19.2a2.187,2.187,0,0,1-1.583-.674,2.125,2.125,0,0,1-.586-1.6c.17-2.964.366-8.013-.15-10-.752-2.893-1.08-4.947-3.129-7.649-2.858-3.745-3.668-10.028-3.506-13.423.674-14.139,10.986-19.3,23.213-18.918,8.672.165,17.814,5.194,19.015,16.81.147,1.279-.156,4.009.029,5.3.812,1.35,3.253,5.944,3.42,6.535a2.119,2.119,0,0,1-.077,1.8,2.171,2.171,0,0,1-1.436,1.108Z" fill="#fff"/>
    <path id="Path_154" data-name="Path 154" d="M126.845,66.939l.576-1.728-1.582-1a5.56,5.56,0,0,0-.133-1.779l1.42-1.213-.827-1.628-1.832.386a5.792,5.792,0,0,0-1.369-1.165l.135-1.847-1.752-.568-1.017,1.568a5.867,5.867,0,0,0-1.8.128l-1.233-1.4-1.645.816.4,1.81A5.706,5.706,0,0,0,115,60.671l-1.867-.122-.576,1.728,1.567.989a5.632,5.632,0,0,0,.13,1.776l-1.418,1.216.827,1.622,1.835-.392a5.815,5.815,0,0,0,1.366,1.162l-.13,1.85,1.749.568,1.011-1.557a5.791,5.791,0,0,0,1.8-.131l1.239,1.4,1.651-.813-.4-1.813a5.657,5.657,0,0,0,1.178-1.353Zm-8.375,1.324a4.751,4.751,0,0,1-3.066-6.022,4.847,4.847,0,0,1,6.105-3.025,4.751,4.751,0,0,1,3.068,6.02A4.847,4.847,0,0,1,118.469,68.263Z" transform="translate(-43.566 -13.808)" fill="#4b4b4b"/>
    <path id="Path_155" data-name="Path 155" d="M103.215,106.222l-.683-1.446-1.616.3a5,5,0,0,0-1.17-1.057l.164-1.617-1.518-.546-.928,1.344a5.134,5.134,0,0,0-1.585.068l-1.04-1.259-1.466.673.308,1.6a5.026,5.026,0,0,0-1.072,1.137l-1.639-.162-.55,1.5,1.357.915a5,5,0,0,0,.069,1.56l-1.259,1.037.683,1.446,1.616-.3a4.981,4.981,0,0,0,1.152,1.054l-.161,1.617,1.515.546.931-1.341a5.178,5.178,0,0,0,1.579-.068l1.046,1.256,1.464-.673-.305-1.594a5.11,5.11,0,0,0,1.072-1.154l1.636.162.553-1.5L102,108.81a4.821,4.821,0,0,0-.069-1.56Zm-4.529,5.814a4.261,4.261,0,0,1-5.629-2.017,4.153,4.153,0,0,1,2.045-5.552,4.261,4.261,0,0,1,5.629,2.017,4.158,4.158,0,0,1-2.046,5.552Z" transform="translate(-27.805 -46.351)" fill="#4b4b4b"/>
    <path id="Path_156" data-name="Path 156" d="M88.283,76.414l-.121-1.074-1.106-.153a3.331,3.331,0,0,0-.519-.926l.461-1-.864-.676-.884.665a3.46,3.46,0,0,0-1.034-.284l-.392-1.031-1.089.119-.156,1.091a3.4,3.4,0,0,0-.936.514l-1.02-.455-.683.852.671.878a3.4,3.4,0,0,0-.288,1.017l-1.043.389.121,1.074,1.106.153a3.252,3.252,0,0,0,.516.926l-.47.98.864.676.893-.662a3.439,3.439,0,0,0,1.031.284l.395,1.031,1.089-.119.135-1.08a3.533,3.533,0,0,0,.942-.511l1.017.452.686-.852-.674-.878a3.342,3.342,0,0,0,.288-1.017ZM84.1,79.181a2.892,2.892,0,0,1-2.849-1.45,2.81,2.81,0,0,1,.273-3.15,2.9,2.9,0,0,1,3.057-.951,2.834,2.834,0,0,1-.482,5.551Z" transform="translate(-19.874 -24.926)" fill="#4b4b4b"/>
  </g>
</svg>
