<svg xmlns="http://www.w3.org/2000/svg" width="40" height="38" viewBox="0 0 40 38">
  <path id="assisten_phone" d="M45.317,41.871a7.245,7.245,0,0,1,1.3.056,7.67,7.67,0,0,1,1.831.452l2.611,12.9a7.742,7.742,0,0,1-3.784,2.007,23.4,23.4,0,0,0,5.935,8.6h0a23.431,23.431,0,0,0,9.087,5.178,7.713,7.713,0,0,1,1.675-3.924l13.1,1.5a7.665,7.665,0,0,1,.6,1.778,7.256,7.256,0,0,1,.165,1.284,7.8,7.8,0,0,1-7.464,8.131A31.209,31.209,0,0,1,37.853,50,7.8,7.8,0,0,1,45.317,41.871Z" transform="translate(-37.846 -41.863)" fill="#fff"/>
</svg>
