<svg id="assisten_share" xmlns="http://www.w3.org/2000/svg" width="15.412" height="18.398" viewBox="0 0 15.412 18.398">
  <rect id="Rectangle_70" data-name="Rectangle 70" width="2.313" height="14.355" transform="translate(0 1.73)" fill="#4b4b4b"/>
  <path id="Path_144" data-name="Path 144" d="M186.906,153.84h1.721a.3.3,0,0,1,.3.3v6.409a.3.3,0,0,1-.3.3H186.61v-6.7A.3.3,0,0,1,186.906,153.84Z" transform="translate(-173.511 -142.445)" fill="#4b4b4b"/>
  <path id="Path_145" data-name="Path 145" d="M0,0H2.313V13.523a.3.3,0,0,1-.3.3H0Z" transform="translate(13.819 16.085) rotate(90)" fill="#4b4b4b"/>
  <path id="Path_146" data-name="Path 146" d="M.3,0H2.018a.3.3,0,0,1,.3.3V5.471H.3a.3.3,0,0,1-.3-.3V.3A.3.3,0,0,1,.3,0Z" transform="translate(5.471 0) rotate(90)" fill="#4b4b4b"/>
  <path id="Path_147" data-name="Path 147" d="M103.988,80.969c-.388-3.041-.2-8.4,5.417-10.049l1.432,4.1c-.1.174-3.393-.621-5.783,6.063a.551.551,0,0,1-1.065-.113Z" transform="translate(-98.921 -67.7)" fill="#4b4b4b"/>
  <path id="Path_148" data-name="Path 148" d="M130.324,65.114c-.088.137-.21.126-.272-.025L126.566,56.6c-.062-.15.017-.245.175-.209l7.75,1.729a.2.2,0,0,1,.129.313Z" transform="translate(-119.368 -54.597)" fill="#4b4b4b"/>
</svg>
