<svg xmlns="http://www.w3.org/2000/svg" width="51" height="51" viewBox="0 0 51 51">
  <g id="assisten_profile_circle_black" transform="translate(-15.072 -14.288)">
    <path id="Path_16" data-name="Path 16" d="M66.072,39.785a25.4,25.4,0,1,1-7.44-18.059A25.5,25.5,0,0,1,66.072,39.785Z" fill="#fff"/>
    <path id="Path_17" data-name="Path 17" d="M55.561,33.416A10.1,10.1,0,1,1,52.6,26.259,10.115,10.115,0,0,1,55.561,33.416Z" transform="translate(-4.838 -2.152)" fill="#4b4b4b"/>
    <path id="Path_18" data-name="Path 18" d="M61.222,60.577a22.068,22.068,0,0,1-14.072,9.44,25.622,25.622,0,0,1-8.091.1,22.1,22.1,0,0,1-14.682-9.646,19.894,19.894,0,0,1,10.89-10.09.555.555,0,0,1,.555.092,11.309,11.309,0,0,0,14.124.072.555.555,0,0,1,.555-.089A19.861,19.861,0,0,1,61.222,60.577Z" transform="translate(-2.222 -8.611)" fill="#4b4b4b"/>
  </g>
</svg>
