<svg xmlns="http://www.w3.org/2000/svg" width="45.858" height="52.276" viewBox="0 0 45.858 52.276">
  <g id="assisten_memory" transform="translate(0)">
    <path id="Path_133" data-name="Path 133" d="M114.642,38.084a23.3,23.3,0,0,0-6.373-.877,23.561,23.561,0,0,0-5.829.726A21.213,21.213,0,0,1,114.642,38.084Z" transform="translate(-86.643 -37.11)"/>
    <path id="Path_134" data-name="Path 134" d="M162.16,196Z" transform="translate(-129.366 -150.777)"/>
    <path id="Path_135" data-name="Path 135" d="M91.939,69.757l-3.131.609-1.025,5.214v.083c0,3.746-3.578,6.8-8.058,6.931H76.7v7.064H52.1V77.231a38.9,38.9,0,0,1-3.618-8.7c-1.819-6.344-1.992-12.335-.751-16.155,1.8-6.831,7.571-12.256,14.965-14.166h.034a23.561,23.561,0,0,1,5.829-.726,23.3,23.3,0,0,1,6.373.877h.054c8.689,2.479,15,9.856,15,18.577,0,.336,0,.669-.028,1v.034c.02.37.028.743.028,1.116V59.7h0l2.747,8.67a1.047,1.047,0,0,1-.794,1.383Z" transform="translate(-46.937 -37.382)" fill="#fff"/>
    <path id="Path_136" data-name="Path 136" d="M73.056,90.655a.4.4,0,0,1-.569-.171l-.444-.891-.393-.8-.435-.891c-.108-.219,0-.342.231-.285l1.588.47.854.253,1.588.47c.233.068.253.231.043.356l-.854.509-.766.461Z" transform="translate(-64.274 -73.23)" fill="#4b4b4b"/>
    <path id="Path_137" data-name="Path 137" d="M157.841,98.03a.4.4,0,0,1,.6,0l.68.72.612.652.677.72c.168.179.105.327-.139.333l-1.656.02h-.891l-1.656.02c-.245,0-.313-.145-.148-.327l.66-.737.595-.666Z" transform="translate(-124.839 -80.594)" fill="#4b4b4b"/>
    <path id="Path_138" data-name="Path 138" d="M76.326,72.6h-.094a.888.888,0,0,1-.794-.973c0-.088,1.047-8.957,14.7-8.442.313,0,8.294.028,11.063,5.778a.894.894,0,1,1-1.608.774C97.32,65,90.142,64.953,90.11,64.97c-11.954-.458-12.865,6.546-12.9,6.831A.9.9,0,0,1,76.326,72.6Z" transform="translate(-67.323 -55.749)" fill="#4b4b4b"/>
    <path id="Path_139" data-name="Path 139" d="M89.149,112.431c-.683,0-1.4-.026-2.16-.083-.285,0-8.285-.344-10.835-6.2a.892.892,0,1,1,1.637-.712c2.1,4.813,9.227,5.123,9.3,5.123,11.92.911,13.092-6.051,13.147-6.35a.9.9,0,0,1,1.01-.754.891.891,0,0,1,.757,1C101.991,104.536,100.767,112.431,89.149,112.431Z" transform="translate(-67.785 -84.57)" fill="#4b4b4b"/>
  </g>
</svg>
