<svg xmlns="http://www.w3.org/2000/svg" width="51.347" height="53.938" viewBox="0 0 51.347 53.938">
  <g id="assisten_assisted" transform="translate(0)">
    <rect id="Rectangle_64" data-name="Rectangle 64" width="12.751" height="17.197" transform="translate(31.846 21.09)" fill="#fff"/>
    <path id="Path_112" data-name="Path 112" d="M159.956,174.44a2.533,2.533,0,0,1-5.066,0V159.753a2.533,2.533,0,1,1,5.066,0Z" transform="translate(-123.044 -123.034)" fill="#fff"/>
    <ellipse id="Ellipse_14" data-name="Ellipse 14" cx="6.375" cy="8.815" rx="6.375" ry="8.815" transform="translate(31.846 12.281)" fill="#fff"/>
    <ellipse id="Ellipse_15" data-name="Ellipse 15" cx="5.789" cy="5.789" rx="5.789" ry="5.789" transform="translate(33.019 0)" fill="#fff"/>
    <ellipse id="Ellipse_16" data-name="Ellipse 16" cx="8.282" cy="3.034" rx="8.282" ry="3.034" transform="translate(30.016 12.028)" fill="#fff"/>
    <path id="Path_113" data-name="Path 113" d="M186.956,172.923a2.533,2.533,0,1,1-5.066,0v-15.29a2.533,2.533,0,1,1,5.066,0Z" transform="translate(-142.359 -121.518)" fill="#fff"/>
    <path id="Path_114" data-name="Path 114" d="M136.167,95.177a2.288,2.288,0,1,1-3.936-2.274l4.34-7.514A2.286,2.286,0,1,1,140.5,87.66Z" transform="translate(-106.567 -70.682)" fill="#fff"/>
    <path id="Path_115" data-name="Path 115" d="M124.443,117.43a2.245,2.245,0,1,1-.509-4.42l2.137-.248a2.245,2.245,0,1,1,.509,4.42Z" transform="translate(-99.26 -91.217)" fill="#fff"/>
    <path id="Path_116" data-name="Path 116" d="M196.418,95.012a2.287,2.287,0,1,0,3.936-2.271l-4.338-7.514a2.287,2.287,0,1,0-3.936,2.271Z" transform="translate(-149.382 -70.566)" fill="#fff"/>
    <path id="Path_117" data-name="Path 117" d="M205.711,119.246a2.245,2.245,0,1,0,4.42.509l.569-5.021a2.245,2.245,0,1,0-4.42-.509Z" transform="translate(-159.386 -90.638)" fill="#fff"/>
    <ellipse id="Ellipse_17" data-name="Ellipse 17" cx="5.789" cy="5.789" rx="5.789" ry="5.789" transform="translate(8.521 1.822)" fill="#fff"/>
    <ellipse id="Ellipse_18" data-name="Ellipse 18" cx="6.375" cy="8.815" rx="6.375" ry="8.815" transform="translate(7.935 14.228)" fill="#fff"/>
    <rect id="Rectangle_65" data-name="Rectangle 65" width="12.751" height="17.197" transform="translate(7.935 22.528)" fill="#fff"/>
    <path id="Path_118" data-name="Path 118" d="M44.3,161.575a.67.67,0,0,1-.105,0l-.538-.065a.766.766,0,0,1-.655-.854l2.786-20.493a4.742,4.742,0,0,1,4.668-3.914,4.966,4.966,0,0,1,.648.043,4.759,4.759,0,0,1,4.1,4.409.811.811,0,0,1-.823.885.922.922,0,0,1-.125,0l-.4-.054a.854.854,0,0,1-.726-.768,2.667,2.667,0,0,0-2.305-2.408,3.126,3.126,0,0,0-.364-.023,2.681,2.681,0,0,0-2.63,2.115L45.054,160.9A.768.768,0,0,1,44.3,161.575Z" transform="translate(-42.999 -108.033)" fill="none"/>
    <path id="Path_119" data-name="Path 119" d="M54.942,142l-.4-.054a.6.6,0,0,1-.507-.541,2.932,2.932,0,0,0-5.792-.319l-2.786,20.476a.509.509,0,0,1-.569.435l-.538-.074a.507.507,0,0,1-.435-.569l2.786-20.476a4.494,4.494,0,0,1,8.9.518.569.569,0,0,1-.666.6Z" transform="translate(-43.654 -108.718)" fill="#fff"/>
    <path id="Path_120" data-name="Path 120" d="M75.946,181.106a2.533,2.533,0,1,1-5.066,0V169.2a2.533,2.533,0,1,1,5.066,0Z" transform="translate(-62.945 -129.795)" fill="#fff"/>
    <path id="Path_121" data-name="Path 121" d="M102.946,181.106a2.533,2.533,0,1,1-5.066,0V169.2a2.533,2.533,0,0,1,5.066,0Z" transform="translate(-82.26 -129.795)" fill="#fff"/>
    <path id="Path_122" data-name="Path 122" d="M47.143,123.816a2.482,2.482,0,1,1,3.376-3.64l4.087,3.777a2.482,2.482,0,1,1-3.367,3.643Z" transform="translate(-45.396 -96.06)" fill="none"/>
    <path id="Path_123" data-name="Path 123" d="M47.143,123.816a2.482,2.482,0,1,1,3.376-3.64l4.087,3.777a2.482,2.482,0,1,1-3.367,3.643Z" transform="translate(-45.396 -96.06)" fill="none"/>
    <path id="Path_124" data-name="Path 124" d="M52.174,102.007a2.286,2.286,0,1,1-3.933-2.271l4.329-7.517a2.288,2.288,0,1,1,3.936,2.274Z" transform="translate(-46.482 -75.568)" fill="#fff"/>
    <path id="Path_125" data-name="Path 125" d="M54.9,124.674a2.245,2.245,0,1,1-3.02,3.267l-3.714-3.433a2.245,2.245,0,1,1,3.02-3.267Z" transform="translate(-46.058 -96.767)" fill="#fff"/>
    <path id="Path_126" data-name="Path 126" d="M115.68,112.483l3.717-.353,1.58,5.812-3.552.965Z" transform="translate(-94.994 -90.778)" fill="none"/>
    <path id="Path_127" data-name="Path 127" d="M117.1,118.344l3.435-1.164,1.349,3.979-3.8.282Z" transform="translate(-96.01 -94.39)" fill="none"/>
    <path id="Path_128" data-name="Path 128" d="M110.252,102.362a2.281,2.281,0,1,0,4.372-1.193L112.347,92.8a2.287,2.287,0,1,0-4.386,1.19Z" transform="translate(-89.401 -75.563)" fill="#fff"/>
    <path id="Path_129" data-name="Path 129" d="M118.064,129.6a2.271,2.271,0,1,0,4.272-1.443l-1.992-5.86a2.271,2.271,0,1,0-4.272,1.443Z" transform="translate(-95.166 -96.771)" fill="#fff"/>
    <ellipse id="Ellipse_19" data-name="Ellipse 19" cx="8.282" cy="3.034" rx="8.282" ry="3.034" transform="translate(6.105 13.972)" fill="#fff"/>
  </g>
</svg>
