<svg xmlns="http://www.w3.org/2000/svg" width="49.277" height="52.87" viewBox="0 0 49.277 52.87">
  <path id="assisten_house" d="M94.91,61.734H91.086V90.147A1.055,1.055,0,0,1,90.028,91.2h-11.9a1.055,1.055,0,0,1-1.055-1.055V74.76h-11.5V90.147A1.055,1.055,0,0,1,64.518,91.2h-11.9a1.055,1.055,0,0,1-1.055-1.055V61.734H47.733a1.055,1.055,0,0,1-.707-1.839l7.06-6.384V42.792a1.055,1.055,0,0,1,1.055-1.055h5.524a1.055,1.055,0,0,1,1.055,1.055v3.841l8.9-8.03a1.058,1.058,0,0,1,1.414,0L84.476,49.849,95.606,59.9a1.055,1.055,0,0,1-.7,1.839Z" transform="translate(-46.678 -38.332)" fill="#fff"/>
</svg>
