<svg xmlns="http://www.w3.org/2000/svg" width="23.863" height="52.874" viewBox="0 0 23.863 52.874">
  <g id="assisten_independent" transform="translate(0)">
    <ellipse id="Ellipse_20" data-name="Ellipse 20" cx="5.852" cy="5.852" rx="5.852" ry="5.852" transform="translate(6.079 0)" fill="#fff"/>
    <path id="Path_130" data-name="Path 130" d="M107.473,95.09v6.321a2.325,2.325,0,0,1-2.325,2.325h0a2.325,2.325,0,0,1-2.328-2.325v-5.8a5.232,5.232,0,0,0-.233-1.54l-.709-2.257c-.285,4.554-3.06,8.095-6.418,8.095-3.256,0-5.946-3.339-6.384-7.685l-.569,1.839a5.153,5.153,0,0,0-.239,1.543v5.809a2.325,2.325,0,0,1-2.325,2.325h0a2.325,2.325,0,0,1-2.331-2.325V95.087a5.141,5.141,0,0,1,.236-1.539l.33-1.057,2.294-7.3.1-.324A3.547,3.547,0,0,1,88.5,83.3,18.173,18.173,0,0,1,95.41,82.08h.12a18.1,18.1,0,0,1,7.033,1.221,3.577,3.577,0,0,1,1.952,1.6.974.974,0,0,1,.06.182l2.325,7.4.33,1.056a5.149,5.149,0,0,1,.242,1.554Z" transform="translate(-83.61 -69.283)" fill="#fff"/>
    <path id="Path_131" data-name="Path 131" d="M115.77,111.639V140.67a2.562,2.562,0,0,1-2.562,2.562h0a2.562,2.562,0,0,1-2.562-2.562V129.052a.12.12,0,0,0-.12-.12h-2.433a.091.091,0,0,0-.091.094v11.635a2.562,2.562,0,0,1-2.562,2.562h0a2.562,2.562,0,0,1-2.562-2.562V111.631a.091.091,0,0,1,.091-.091h12.7a.091.091,0,0,1,.1.1Z" transform="translate(-97.396 -90.358)" fill="#fff"/>
    <path id="Path_132" data-name="Path 132" d="M94.088,91.86,94,92.184A1.19,1.19,0,0,1,94.088,91.86Z" transform="translate(-91.043 -76.28)" fill="#fff"/>
  </g>
</svg>
