<svg id="assisten_behavioral" xmlns="http://www.w3.org/2000/svg" width="50.518" height="53.38" viewBox="0 0 50.518 53.38">
  <ellipse id="Ellipse_21" data-name="Ellipse 21" cx="21.847" cy="22.175" rx="21.847" ry="22.175" transform="translate(3.947 0)" fill="#fff"/>
  <ellipse id="Ellipse_22" data-name="Ellipse 22" cx="7.392" cy="7.079" rx="7.392" ry="7.079" transform="translate(32.252 22.021)"/>
  <path id="Path_140" data-name="Path 140" d="M190.978,121.118l-7.523,1.457a1.076,1.076,0,0,1-1.138-1.594l4.52-10.878a1.076,1.076,0,0,1,1.95.185l3.014,9.421a1.076,1.076,0,0,1-.823,1.409Z" transform="translate(-141.342 -88.057)" fill="#fff"/>
  <rect id="Rectangle_66" data-name="Rectangle 66" width="18.051" height="5.795" transform="translate(19.117 40.376)"/>
  <rect id="Rectangle_67" data-name="Rectangle 67" width="25.115" height="22.969" transform="translate(8.959 30.412)" fill="#fff"/>
  <ellipse id="Ellipse_23" data-name="Ellipse 23" cx="8.55" cy="7.079" rx="8.55" ry="7.079" transform="translate(28.302 32.014)" fill="#fff"/>
  <rect id="Rectangle_68" data-name="Rectangle 68" width="7.989" height="15.011" transform="translate(40.026 24.883) rotate(11.09)" fill="#fff"/>
  <ellipse id="Ellipse_24" data-name="Ellipse 24" cx="21.876" cy="19.878" rx="21.876" ry="19.878" transform="translate(3.89 0.1)" fill="#fff"/>
  <ellipse id="Ellipse_25" data-name="Ellipse 25" cx="8.302" cy="19.109" rx="8.302" ry="19.109" transform="translate(0 13.444) rotate(-15.98)" fill="#fff"/>
  <rect id="Rectangle_69" data-name="Rectangle 69" width="2.647" height="0.834" transform="translate(10.379 18.332)" fill="#fff"/>
  <path id="Path_141" data-name="Path 141" d="M129.888,64.847l.592-1.785-1.614-1.033a5.854,5.854,0,0,0-.134-1.841l1.449-1.255-.854-1.682-1.867.421a5.877,5.877,0,0,0-1.4-1.207l.137-1.913-1.785-.592-1.036,1.617a5.817,5.817,0,0,0-1.836.131l-1.252-1.452-1.682.854.41,1.87a5.943,5.943,0,0,0-1.207,1.4l-1.91-.137-.592,1.785,1.619,1.022a5.818,5.818,0,0,0,.134,1.836l-1.449,1.261.854,1.679,1.873-.41a5.829,5.829,0,0,0,1.392,1.2L119.6,68.53l1.787.592,1.03-1.611a6.028,6.028,0,0,0,1.841-.134l1.255,1.446,1.682-.854-.41-1.876a5.883,5.883,0,0,0,1.2-1.392Zm-8.539,1.372a3.512,3.512,0,1,0-.006-.009Z" transform="translate(-93.509 -48.279)" fill="#4b4b4b"/>
  <path id="Path_142" data-name="Path 142" d="M105.473,105.354l-.7-1.494-1.648.313a5.209,5.209,0,0,0-1.193-1.09l.168-1.674-1.551-.569-.945,1.389a5.243,5.243,0,0,0-1.628.08l-1.062-1.3-1.494.694.31,1.654a5.209,5.209,0,0,0-1.09,1.19l-1.674-.168-.569,1.551,1.406.931a5.157,5.157,0,0,0,.068,1.617l-1.3,1.07.7,1.494,1.651-.31a5.149,5.149,0,0,0,1.19,1.09l-.165,1.674,1.545.569.951-1.386a5.123,5.123,0,0,0,1.611-.071l1.064,1.3,1.494-.7-.31-1.648a5.228,5.228,0,0,0,1.087-1.2l1.668.165.569-1.548-1.383-.948a5.205,5.205,0,0,0-.071-1.611Zm-4.622,6.017a4.323,4.323,0,1,1,2.089-5.744A4.323,4.323,0,0,1,100.85,111.371Z" transform="translate(-77.119 -81.816)" fill="#4b4b4b"/>
  <path id="Path_143" data-name="Path 143" d="M90.116,74.551l-.122-1.11-1.138-.157a3.552,3.552,0,0,0-.512-.962l.47-1.036-.874-.7-.908.686a3.589,3.589,0,0,0-1.053-.3L85.571,69.9l-1.113.125L84.3,71.164a3.452,3.452,0,0,0-.959.527l-1.039-.47-.7.874.683.908a3.566,3.566,0,0,0-.3,1.053l-1.064.4.122,1.11,1.138.159a3.492,3.492,0,0,0,.527.959l-.47,1.039.874.7.911-.686a3.489,3.489,0,0,0,1.05.3l.4,1.067,1.113-.125.157-1.138a3.509,3.509,0,0,0,.953-.515l1.036.467.7-.871-.689-.911a3.49,3.49,0,0,0,.3-1.05Zm-4.269,2.863a2.33,2.33,0,1,0-.006,0Z" transform="translate(-68.907 -59.682)" fill="#4b4b4b"/>
</svg>
