<svg id="assisten_washer" xmlns="http://www.w3.org/2000/svg" width="19.97" height="24.872" viewBox="0 0 19.97 24.872">
  <path id="Path_33" data-name="Path 33" d="M58.52,67.4H78.462V87.95a.4.4,0,0,1-.4.4H58.921a.4.4,0,0,1-.4-.4Z" transform="translate(-58.492 -63.48)" fill="#4b4b4b"/>
  <path id="Path_34" data-name="Path 34" d="M58.711,38.06h19.14a.4.4,0,0,1,.4.4v2.961H58.31V38.461A.4.4,0,0,1,58.711,38.06Z" transform="translate(-58.31 -38.06)" fill="#4b4b4b"/>
  <ellipse id="Ellipse_8" data-name="Ellipse 8" cx="6.602" cy="6.602" rx="6.602" ry="6.602" transform="translate(3.396 7.794)" fill="#fff"/>
  <ellipse id="Ellipse_9" data-name="Ellipse 9" cx="0.93" cy="0.93" rx="0.93" ry="0.93" transform="translate(13.495 0.751)" fill="#fff"/>
  <ellipse id="Ellipse_10" data-name="Ellipse 10" cx="0.93" cy="0.93" rx="0.93" ry="0.93" transform="translate(16.6 0.751)" fill="#fff"/>
  <rect id="Rectangle_62" data-name="Rectangle 62" width="3.882" height="1.606" transform="translate(2.36 0.878)" fill="#fff"/>
  <path id="Path_35" data-name="Path 35" d="M104.231,139.961a5.321,5.321,0,1,1-10.641,0v-.035c.971-.42,3.539-1.3,5.338.11,1.72,1.352,3.972.134,4.952-.52a.22.22,0,0,1,.343.17C104.228,139.776,104.231,139.868,104.231,139.961Z" transform="translate(-88.876 -125.743)" fill="#4b4b4b"/>
</svg>
