<svg xmlns="http://www.w3.org/2000/svg" width="265.635" height="77.339" viewBox="0 0 265.635 77.339">
  <g id="Layer_x0020_1" transform="translate(-1065.75 -2464.5)">
    <path id="Path_231" data-name="Path 231" d="M1393.648,2719.6v12.118h22.1V2719.6h3.606l-14.675-15.6L1390,2719.6Z" transform="translate(-310.654 -229.458)" fill="#f7cc2d" fill-rule="evenodd"/>
    <path id="Path_232" data-name="Path 232" d="M1652,3011h3.27v3.271H1652Zm4.151,4.151h3.271v3.271h-3.271Zm-4.151,0h3.27v3.271H1652Zm4.151-4.151h3.271v3.271h-3.271Z" transform="translate(-561.669 -523.585)" fill="#fff" fill-rule="evenodd"/>
    <path id="Path_233" data-name="Path 233" d="M1339.527,4234c9.686,0,17.527.713,17.527,1.593,0,.839-7.841,1.552-17.527,1.552-9.644,0-17.526-.713-17.526-1.552C1322,4234.713,1329.883,4234,1339.527,4234Z" transform="translate(-245.506 -1695.306)" fill="#ccc" fill-rule="evenodd"/>
    <path id="Path_234" data-name="Path 234" d="M1078,2476.764a22.661,22.661,0,0,1,37.988,10.482,24.307,24.307,0,0,1,.671,5.493q0,1.258-.126,2.516a22.658,22.658,0,0,1-1.384,5.7l-.419.922a8.915,8.915,0,0,1-.5.839l-.042.126-.084.042c-3.816,1.845-10.441,3.564-14.885,2.348a14.837,14.837,0,0,0,7.631,4.4c-8.092,2.893-17.443.755-24.864-3.145l1.635,1.635c6.038,5.451,15.053,9.015,23.187,7.3,5.325-1.132,9.937-4.487,12.789-10.524a28.3,28.3,0,1,0-45.578,7.883l20,20,13.25-13.208a29.658,29.658,0,0,1-8.176.209l-5.073,5.032L1078,2508.8A22.8,22.8,0,0,1,1078,2476.764Z" transform="translate(0 0)" fill="#fff" fill-rule="evenodd"/>
    <path id="Path_235" data-name="Path 235" d="M2650.585,2991.168h-2.558L2637,3015.529h2.809l2.851-6.373h13.208l2.809,6.373h2.935Zm4.193,15.556h-11.028l5.535-12.327Zm17.4-9.35a3.266,3.266,0,0,1,.377-1.552,3.377,3.377,0,0,1,1.048-1.258,5.189,5.189,0,0,1,1.593-.839,6.939,6.939,0,0,1,2.138-.293,10.531,10.531,0,0,1,3.606.629,10.96,10.96,0,0,1,3.4,1.97l1.593-2.1a15.782,15.782,0,0,0-3.858-2.222,14.276,14.276,0,0,0-4.654-.713,9.589,9.589,0,0,0-3.187.5,8.1,8.1,0,0,0-2.516,1.384,6.737,6.737,0,0,0-1.677,2.1,6.291,6.291,0,0,0-.587,2.683,6.121,6.121,0,0,0,.5,2.6,5.07,5.07,0,0,0,1.468,1.971,8.64,8.64,0,0,0,2.558,1.384,21.868,21.868,0,0,0,3.606,1.048,25.908,25.908,0,0,1,3.145.88,6.326,6.326,0,0,1,1.929,1.006,2.893,2.893,0,0,1,.964,1.216,3.659,3.659,0,0,1,.294,1.552,3.714,3.714,0,0,1-1.468,3.019,6.373,6.373,0,0,1-3.942,1.132,11.352,11.352,0,0,1-4.445-.839,14.862,14.862,0,0,1-3.857-2.6l-1.677,2.013a15.481,15.481,0,0,0,4.571,2.893,14.5,14.5,0,0,0,5.325.965,10.547,10.547,0,0,0,3.313-.5,8.086,8.086,0,0,0,2.6-1.384,6.6,6.6,0,0,0,1.677-2.18,6.335,6.335,0,0,0,.629-2.851,5.433,5.433,0,0,0-1.929-4.4,14.186,14.186,0,0,0-5.954-2.474,28.934,28.934,0,0,1-3.271-.88,6.38,6.38,0,0,1-2.012-1.048,2.8,2.8,0,0,1-1.006-1.258A4.442,4.442,0,0,1,2672.179,2997.373Zm25.955,0a3.263,3.263,0,0,1,.377-1.552,3.381,3.381,0,0,1,1.048-1.258,5.194,5.194,0,0,1,1.593-.839,6.941,6.941,0,0,1,2.138-.293,10.531,10.531,0,0,1,3.606.629,10.958,10.958,0,0,1,3.4,1.97l1.593-2.1a15.78,15.78,0,0,0-3.857-2.222,14.278,14.278,0,0,0-4.654-.713,9.585,9.585,0,0,0-3.187.5,8.091,8.091,0,0,0-2.516,1.384,6.738,6.738,0,0,0-1.677,2.1,6.291,6.291,0,0,0-.587,2.683,6.117,6.117,0,0,0,.5,2.6,5.067,5.067,0,0,0,1.468,1.971,8.645,8.645,0,0,0,2.558,1.384,21.875,21.875,0,0,0,3.606,1.048,25.916,25.916,0,0,1,3.145.88,6.326,6.326,0,0,1,1.929,1.006,2.892,2.892,0,0,1,.964,1.216,3.663,3.663,0,0,1,.293,1.552,3.714,3.714,0,0,1-1.468,3.019,6.372,6.372,0,0,1-3.941,1.132,11.349,11.349,0,0,1-4.445-.839,14.868,14.868,0,0,1-3.858-2.6l-1.677,2.013a15.477,15.477,0,0,0,4.57,2.893,14.5,14.5,0,0,0,5.325.965,10.549,10.549,0,0,0,3.313-.5,8.089,8.089,0,0,0,2.6-1.384,6.6,6.6,0,0,0,1.677-2.18,6.332,6.332,0,0,0,.629-2.851,5.434,5.434,0,0,0-1.929-4.4,14.187,14.187,0,0,0-5.954-2.474,28.937,28.937,0,0,1-3.271-.88,6.374,6.374,0,0,1-2.012-1.048,2.8,2.8,0,0,1-1.007-1.258A4.442,4.442,0,0,1,2698.134,2997.373Zm24.445-6.038v24.193h2.725v-24.193Zm16.1,6.038a3.266,3.266,0,0,1,.377-1.552,3.381,3.381,0,0,1,1.048-1.258,5.2,5.2,0,0,1,1.593-.839,6.764,6.764,0,0,1,2.138-.293,10.125,10.125,0,0,1,3.564.629,10.5,10.5,0,0,1,3.4,1.97l1.593-2.1a14.379,14.379,0,0,0-3.857-2.222,13.838,13.838,0,0,0-4.612-.713,9.586,9.586,0,0,0-3.187.5,8.094,8.094,0,0,0-2.516,1.384,6.19,6.19,0,0,0-1.677,2.1,6.294,6.294,0,0,0-.587,2.683,6.114,6.114,0,0,0,.5,2.6,5.066,5.066,0,0,0,1.467,1.971,8.643,8.643,0,0,0,2.558,1.384,20.716,20.716,0,0,0,3.606,1.048,28.335,28.335,0,0,1,3.145.88,6.32,6.32,0,0,1,1.928,1.006,2.89,2.89,0,0,1,.964,1.216,4.437,4.437,0,0,1,.293,1.552,3.715,3.715,0,0,1-1.467,3.019,6.373,6.373,0,0,1-3.941,1.132,11.2,11.2,0,0,1-4.445-.839,14.2,14.2,0,0,1-3.858-2.6l-1.677,2.013a14.964,14.964,0,0,0,4.571,2.893,14.337,14.337,0,0,0,5.325.965,10.738,10.738,0,0,0,3.312-.5,8.546,8.546,0,0,0,2.6-1.384,6.593,6.593,0,0,0,1.677-2.18,6.329,6.329,0,0,0,.629-2.851,5.562,5.562,0,0,0-1.929-4.4,14.438,14.438,0,0,0-5.954-2.474,32.766,32.766,0,0,1-3.312-.88,6.6,6.6,0,0,1-1.971-1.048,2.8,2.8,0,0,1-1.006-1.258A3.659,3.659,0,0,1,2738.679,2997.373Zm32.789-3.522h8.134v-2.516h-18.994v2.516h8.135v21.678h2.725Zm34.969-2.516h-17.484v24.193h17.652v-2.474h-14.927v-8.47h13.208v-2.474h-13.208v-8.26h14.759Zm27.632,19.413-15.22-19.413h-2.558v24.193h2.642V2995.7l15.64,19.833h2.18v-24.193h-2.684Z" transform="translate(-1505.368 -504.424)" fill="#fff"/>
  </g>
</svg>
