<svg xmlns="http://www.w3.org/2000/svg" viewBox="0 0 54.17 74.1"><defs><style>.cls-1{fill:#f8cc1a;}.cls-1,.cls-2,.cls-3{fill-rule:evenodd;}.cls-2{fill:#cbcbcc;}.cls-3{fill:#2681b4;}</style></defs><g id="Layer_2" data-name="Layer 2"><g id="Layer_1-2" data-name="Layer 1"><path class="cls-1" d="M27.08,9.64,13,24.58H16.5v11.6H37.66V24.58h3.49Zm-.41,19.43H23.54V25.93h3.13Zm0-4H23.54V22h3.13Zm4,4H27.5V25.93h3.13Zm0-4H27.5V22h3.13Z"/><path class="cls-2" d="M27.09,71.09c9.27,0,16.78.67,16.78,1.5S36.36,74.1,27.09,74.1,10.3,73.43,10.3,72.59,17.81,71.09,27.09,71.09Z"/><path class="cls-3" d="M11.74,11.77a21.67,21.67,0,0,1,37,15.31,21.14,21.14,0,0,1-.13,2.39,22,22,0,0,1-1.31,5.46l-.41.87c-.15.3-.28.55-.46.84l0,.09-.09,0c-3.66,1.77-10,3.41-14.24,2.25a13.91,13.91,0,0,0,7.29,4.23c-7.73,2.78-16.69.71-23.81-3l1.56,1.59c5.78,5.22,14.43,8.62,22.21,7,5.11-1.08,9.54-4.3,12.28-10.11A27.12,27.12,0,1,0,7.91,46.26L27.09,65.44,39.77,52.75a27.45,27.45,0,0,1-7.84.2L27.08,57.8,11.74,42.45A21.77,21.77,0,0,1,11.74,11.77Z"/></g></g></svg>