<svg xmlns="http://www.w3.org/2000/svg" width="24.65" height="23.756" viewBox="0 0 24.65 23.756">
  <g id="charity" transform="translate(0 -8.125)">
    <g id="Group_469" data-name="Group 469" transform="translate(8.508 8.125)">
      <g id="Group_468" data-name="Group 468" transform="translate(0 0)">
        <path id="Path_163" data-name="Path 163" d="M165.616,8.979a3.168,3.168,0,0,0-2.189-.854,3.49,3.49,0,0,0-2.46,1.022l-.288.288-.288-.289a3.493,3.493,0,0,0-2.46-1.022,3.168,3.168,0,0,0-2.189.854,3.27,3.27,0,0,0-.072,4.694l5.009,5.009,5.009-5.009A3.27,3.27,0,0,0,165.616,8.979Z" transform="translate(-154.712 -8.125)" fill="#4b4b4b"/>
      </g>
    </g>
    <g id="Group_471" data-name="Group 471" transform="translate(0 20.443)">
      <g id="Group_470" data-name="Group 470">
        <path id="Path_164" data-name="Path 164" d="M24.328,232.915a2.271,2.271,0,0,0-2.48.09c-.8.464-5.416,4.407-5.416,4.407h-4.54a.5.5,0,0,1-.44-.448.449.449,0,0,1,.44-.44H14.67a1.924,1.924,0,0,0,2.061-1.76,1.877,1.877,0,0,0-2.061-1.76c-1.687,0-2.015.007-2.015.007a4.088,4.088,0,0,1-1.889-.323,5.21,5.21,0,0,0-2.381-.565,5.084,5.084,0,0,0-3.647,1.494L0,238.284l5.279,5.279,1.76-1.76h8.91a3.622,3.622,0,0,0,2.406-.914l6.033-6.768A.771.771,0,0,0,24.328,232.915Z" transform="translate(0 -232.125)" fill="#4b4b4b"/>
      </g>
    </g>
  </g>
</svg>
