<svg id="coin" xmlns="http://www.w3.org/2000/svg" width="24.65" height="24.65" viewBox="0 0 24.65 24.65">
  <g id="Group_472" data-name="Group 472" transform="translate(0)">
    <path id="Path_165" data-name="Path 165" d="M21.04,3.61A12.325,12.325,0,0,0,3.61,21.04,12.325,12.325,0,0,0,21.04,3.61ZM13.1,17.688h-.051v1.6a.722.722,0,0,1-1.444,0v-1.6H10a.722.722,0,0,1,0-1.444H13.1a1.6,1.6,0,0,0,0-3.2H11.551a3.043,3.043,0,0,1,0-6.085H11.6v-1.6a.722.722,0,0,1,1.444,0v1.6h1.6a.722.722,0,1,1,0,1.444H11.551a1.6,1.6,0,0,0,0,3.2H13.1a3.043,3.043,0,0,1,0,6.085Z" transform="translate(0 0)" fill="#4b4b4b"/>
  </g>
</svg>
