<svg id="Layer_2" data-name="Layer 2" xmlns="http://www.w3.org/2000/svg" width="23.343" height="25.063" viewBox="0 0 23.343 25.063">
  <g id="Layer_1" data-name="Layer 1" transform="translate(0 0)">
    <path id="Path_107" data-name="Path 107" d="M22.833,11.109a.51.51,0,0,0,.343-.888l-5.26-4.749L12.015.144a.514.514,0,0,0-.676,0L7.12,3.946v-1.8a.51.51,0,0,0-.51-.51H4.01a.51.51,0,0,0-.51.51V7.215L.17,10.221a.51.51,0,0,0,.343.888H2.3V24.57a.51.51,0,0,0,.51.51H20.533a.512.512,0,0,0,.512-.51V11.109Z" transform="translate(-0.002 -0.017)" fill="#4b4b4b"/>
    <path id="Path_108" data-name="Path 108" d="M24.2,59.059c-.291,0-.525-.151-.525-.338,0-1.03.933-1.551,1.756-2.009.749-.417,1.393-.776,1.393-1.5s-.645-1.082-1.393-1.5c-.823-.451-1.756-.979-1.756-2.011s.922-1.56,1.745-2.011c.749-.415,1.393-.776,1.393-1.5,0-.187.225-.338.525-.338s.525.151.525.338c0,1.033-.933,1.551-1.756,2.011-.749.415-1.393.776-1.393,1.5s.645,1.082,1.393,1.5c.823.451,1.756.979,1.756,2.011s-.933,1.551-1.756,2.009c-.749.417-1.393.776-1.393,1.5C24.709,58.908,24.475,59.059,24.2,59.059Z" transform="translate(-18.333 -37.073)" fill="#fff"/>
    <path id="Path_109" data-name="Path 109" d="M42.975,59.059c-.291,0-.525-.151-.525-.338,0-1.03.933-1.551,1.756-2.009.749-.417,1.393-.776,1.393-1.5s-.645-1.082-1.393-1.5c-.823-.451-1.756-.979-1.756-2.011s.933-1.56,1.756-2.011c.749-.415,1.393-.776,1.393-1.5,0-.187.225-.338.525-.338s.525.151.525.338c0,1.033-.933,1.551-1.756,2.011-.749.415-1.393.776-1.393,1.5s.645,1.082,1.393,1.5c.823.451,1.756.979,1.756,2.011s-.933,1.551-1.756,2.009c-.742.417-1.393.776-1.393,1.49C43.5,58.908,43.264,59.059,42.975,59.059Z" transform="translate(-32.879 -37.073)" fill="#fff"/>
    <path id="Path_110" data-name="Path 110" d="M61.8,59.292c-.289,0-.523-.151-.523-.338,0-1.033.933-1.551,1.756-2.011.749-.415,1.393-.773,1.393-1.495s-.645-1.082-1.393-1.5c-.823-.451-1.756-.979-1.756-2.011s.931-1.551,1.756-2.009c.749-.417,1.393-.776,1.393-1.5,0-.187.225-.338.525-.338s.525.151.525.338c0,1.033-.936,1.554-1.759,2.011-.746.417-1.393.776-1.393,1.5s.647,1.094,1.393,1.5c.823.451,1.759.979,1.759,2.011S64.545,57,63.722,57.456c-.746.415-1.393.773-1.393,1.5C62.328,59.141,62.094,59.292,61.8,59.292Z" transform="translate(-47.463 -37.251)" fill="#fff"/>
  </g>
</svg>
