<svg id="Layer_2" data-name="Layer 2" xmlns="http://www.w3.org/2000/svg" width="19.953" height="24.859" viewBox="0 0 19.953 24.859">
  <g id="Layer_1" data-name="Layer 1">
    <path id="Path_102" data-name="Path 102" d="M.09,17.71H20.024V37.987a.664.664,0,0,1-.664.664H.754a.664.664,0,0,1-.664-.664V17.71Z" transform="translate(-0.07 -13.791)" fill="#4b4b4b"/>
    <path id="Path_103" data-name="Path 103" d="M.664,0H19.27a.664.664,0,0,1,.664.664v2.7H0V.664A.664.664,0,0,1,.664,0Z" fill="#4b4b4b"/>
    <circle id="Ellipse_11" data-name="Ellipse 11" cx="0.929" cy="0.929" r="0.929" transform="translate(13.49 0.75)" fill="#fff"/>
    <circle id="Ellipse_12" data-name="Ellipse 12" cx="0.929" cy="0.929" r="0.929" transform="translate(16.592 0.75)" fill="#fff"/>
    <rect id="Rectangle_63" data-name="Rectangle 63" width="3.879" height="1.604" transform="translate(2.359 0.879)" fill="#fff"/>
    <circle id="Ellipse_13" data-name="Ellipse 13" cx="6.599" cy="6.599" r="6.599" transform="translate(3.388 7.789)" fill="#fff"/>
    <path id="Path_104" data-name="Path 104" d="M26.733,55.65c-.188,0-.343-.1-.343-.221,0-.664.611-1.013,1.148-1.314.489-.272.912-.507.912-.978s-.423-.706-.912-.978c-.538-.3-1.148-.64-1.148-1.314S27,49.83,27.538,49.529c.489-.272.912-.507.912-.978,0-.122.153-.221.343-.221s.343.1.343.221c0,.675-.611,1.013-1.148,1.314-.489.272-.912.507-.912.978s.423.708.912.978c.529.3,1.148.64,1.148,1.314s-.62,1.013-1.148,1.317c-.489.27-.912.5-.912.978C27.076,55.559,26.923,55.65,26.733,55.65Z" transform="translate(-20.55 -37.635)" fill="#4b4b4b"/>
    <path id="Path_105" data-name="Path 105" d="M39.273,55.65c-.19,0-.343-.1-.343-.221,0-.664.609-1.013,1.148-1.314.487-.272.909-.507.909-.978s-.423-.706-.909-.978c-.54-.3-1.148-.64-1.148-1.314s.609-1.014,1.148-1.314c.487-.272.909-.507.909-.978,0-.122.153-.221.343-.221s.343.1.343.221c0,.675-.611,1.013-1.148,1.314-.487.272-.916.507-.916.978s.423.708.909.978c.538.3,1.148.64,1.148,1.314s-.6,1.013-1.142,1.317c-.487.268-.916.5-.916.976C39.609,55.559,39.463,55.65,39.273,55.65Z" transform="translate(-30.315 -37.635)" fill="#4b4b4b"/>
    <path id="Path_106" data-name="Path 106" d="M51.793,55.808c-.188,0-.343-.1-.343-.221,0-.664.611-1.013,1.148-1.312.489-.272.912-.507.912-.978s-.423-.708-.912-.978c-.538-.3-1.148-.64-1.148-1.314s.611-1.014,1.148-1.314c.489-.272.912-.507.912-.978,0-.122.153-.221.343-.221s.343.1.343.221c0,.664-.611,1.013-1.148,1.312-.489.272-.912.509-.912.98s.423.706.912.978c.538.3,1.148.64,1.148,1.314s-.611,1.013-1.148,1.312c-.489.272-.912.507-.912.978C52.138,55.708,51.986,55.808,51.793,55.808Z" transform="translate(-40.065 -37.76)" fill="#4b4b4b"/>
  </g>
</svg>
