<svg id="book" xmlns="http://www.w3.org/2000/svg" width="21.612" height="21.612" viewBox="0 0 21.612 21.612">
  <path id="Path_394" data-name="Path 394" d="M5.763,65.8V64.364A.36.36,0,0,0,5.4,64H.36a.36.36,0,0,0-.36.36V65.8Zm0,0" transform="translate(0 -61.122)" fill="#4b4b4b"/>
  <path id="Path_395" data-name="Path 395" d="M0,120V131.89H5.763V120Zm4.322,4.683H1.441a.36.36,0,0,1-.36-.36v-2.882a.36.36,0,0,1,.36-.36H4.322a.36.36,0,0,1,.36.36v2.882A.36.36,0,0,1,4.322,124.686Zm0,0" transform="translate(0 -114.601)" fill="#4b4b4b"/>
  <path id="Path_396" data-name="Path 396" d="M0,432v1.8a.36.36,0,0,0,.36.36H5.4a.36.36,0,0,0,.36-.36V432Zm0,0" transform="translate(0 -412.553)" fill="#4b4b4b"/>
  <path id="Path_397" data-name="Path 397" d="M0,400H5.763v.72H0Zm0,0" transform="translate(0 -381.994)" fill="#4b4b4b"/>
  <path id="Path_398" data-name="Path 398" d="M144,400h4.683v.72H144Zm0,0" transform="translate(-137.516 -381.994)" fill="#4b4b4b"/>
  <path id="Path_399" data-name="Path 399" d="M148.683,1.445V.364a.36.36,0,0,0-.36-.36H144.36a.36.36,0,0,0-.36.36V1.445Zm0,0" transform="translate(-137.516 -0.004)" fill="#4b4b4b"/>
  <path id="Path_400" data-name="Path 400" d="M144,88h4.683v13.327H144Zm0,0" transform="translate(-137.516 -84.042)" fill="#4b4b4b"/>
  <path id="Path_401" data-name="Path 401" d="M144,432v1.8a.36.36,0,0,0,.36.36h3.962a.36.36,0,0,0,.36-.36V432Zm0,0" transform="translate(-137.516 -412.553)" fill="#4b4b4b"/>
  <path id="Path_402" data-name="Path 402" d="M144,48h4.683v1.081H144Zm0,0" transform="translate(-137.516 -45.843)" fill="#4b4b4b"/>
  <path id="Path_403" data-name="Path 403" d="M263.809,131.166l.193.74,6.1-1.627-.193-.74Zm0,0" transform="translate(-251.931 -123.707)" fill="#4b4b4b"/>
  <path id="Path_404" data-name="Path 404" d="M322.465,356.041l6.1-1.627-.386-1.481-6.1,1.627Zm0,0" transform="translate(-307.577 -337.043)" fill="#4b4b4b"/>
  <path id="Path_405" data-name="Path 405" d="M280.3,169.377l-2.067-7.924-6.1,1.627L274.2,171Zm0,0" transform="translate(-259.876 -154.184)" fill="#4b4b4b"/>
  <path id="Path_406" data-name="Path 406" d="M248.519,67.887l6.1-1.627-.517-1.984a.368.368,0,0,0-.443-.259l-5.4,1.441A.363.363,0,0,0,248,65.9Zm0,0" transform="translate(-236.823 -61.125)" fill="#4b4b4b"/>
  <path id="Path_407" data-name="Path 407" d="M340.8,401.3l-6.1,1.627.43,1.647a.362.362,0,0,0,.169.22.348.348,0,0,0,.18.05.42.42,0,0,0,.094-.011l5.4-1.441a.363.363,0,0,0,.256-.44Zm0,0" transform="translate(-319.626 -383.233)" fill="#4b4b4b"/>
</svg>
