<svg xmlns="http://www.w3.org/2000/svg" width="24.65" height="17.607" viewBox="0 0 24.65 17.607">
  <g id="picture" transform="translate(0 -68.267)">
    <g id="Group_475" data-name="Group 475" transform="translate(0 68.267)">
      <g id="Group_474" data-name="Group 474" transform="translate(0 0)">
        <path id="Path_167" data-name="Path 167" d="M22.009,68.267H2.641A2.641,2.641,0,0,0,0,70.908V83.233a2.641,2.641,0,0,0,2.641,2.641H22.009a2.641,2.641,0,0,0,2.641-2.641V70.908A2.641,2.641,0,0,0,22.009,68.267Zm.88,10.2-5.54-5.54a.88.88,0,0,0-1.245,0l-7.3,7.3-2.9-2.9a.88.88,0,0,0-1.245,0l-2.9,2.9V70.908a.88.88,0,0,1,.88-.88H22.009a.88.88,0,0,1,.88.88v7.559Z" transform="translate(0 -68.267)" fill="#4b4b4b"/>
      </g>
    </g>
    <g id="Group_477" data-name="Group 477" transform="translate(5.282 71.788)">
      <g id="Group_476" data-name="Group 476" transform="translate(0 0)">
        <circle id="Ellipse_27" data-name="Ellipse 27" cx="2.641" cy="2.641" r="2.641" fill="#4b4b4b"/>
      </g>
    </g>
  </g>
</svg>
