<svg id="swimmer" xmlns="http://www.w3.org/2000/svg" width="23.053" height="17.672" viewBox="0 0 23.053 17.672">
  <path id="Path_416" data-name="Path 416" d="M147.669,71.551l-1.108-1.785a3.022,3.022,0,1,0-.388-.625l-2.679-4.318,3.976-1.147a2,2,0,0,0-1.108-3.84l-6.019,1.737a2.449,2.449,0,0,0-1.4,3.646l1.819,2.932-3.191,1.98c3.838.088,6.612,1.257,10.1,1.421Z" transform="translate(-131.375 -59.757)" fill="#4b4b4b"/>
  <path id="Path_417" data-name="Path 417" d="M.86,322.042c8.726-2.48,12.021,2.527,21.687,0a.675.675,0,1,0-.341-1.307c-9.287,2.424-12.587-2.591-21.716,0a.675.675,0,1,0,.369,1.3Z" transform="translate(0 -308.259)" fill="#4b4b4b"/>
  <path id="Path_418" data-name="Path 418" d="M22.206,390.705c-9.3,2.429-12.569-2.6-21.716,0a.675.675,0,0,0,.369,1.3c8.726-2.48,12.021,2.527,21.687,0a.675.675,0,1,0-.341-1.307Z" transform="translate(0 -375.073)" fill="#4b4b4b"/>
</svg>
