<svg xmlns="http://www.w3.org/2000/svg" width="16.706" height="19.1" viewBox="0 0 16.706 19.1">
  <g id="cutlery" transform="translate(-30.912)">
    <path id="Path_195" data-name="Path 195" d="M33.12,0c-.949,0-2.208,2.557-2.208,4.508A2.321,2.321,0,0,0,31.986,6.82a1.416,1.416,0,0,1,.767,1.4l-.926,9.455a1.3,1.3,0,1,0,2.586,0L33.488,8.22a1.417,1.417,0,0,1,.767-1.4,2.321,2.321,0,0,0,1.074-2.312C35.329,2.557,34.12,0,33.12,0Z" fill="#4b4b4b"/>
    <path id="Path_196" data-name="Path 196" d="M204.551,0a.317.317,0,0,0-.317.317v3.9a.318.318,0,1,1-.637,0V.317A.317.317,0,0,0,203.281,0h0a.317.317,0,0,0-.316.317v3.9a.318.318,0,0,1-.637,0V.317A.317.317,0,0,0,202.008,0h0a.317.317,0,0,0-.316.317v3.9a.318.318,0,0,1-.637,0V.317A.317.317,0,0,0,200.734,0a.3.3,0,0,0-.3.3V4.508a2.321,2.321,0,0,0,1.074,2.312,1.416,1.416,0,0,1,.767,1.4l-.926,9.455a1.3,1.3,0,1,0,2.586,0L203.01,8.22a1.417,1.417,0,0,1,.767-1.4,2.321,2.321,0,0,0,1.074-2.312V.3A.3.3,0,0,0,204.551,0Z" transform="translate(-162.957)" fill="#4b4b4b"/>
    <path id="Path_197" data-name="Path 197" d="M389.163,9.02a.217.217,0,0,0,.217-.217V.381A.381.381,0,0,0,389,0a.409.409,0,0,0-.393.3l-1.319,4.6a4.687,4.687,0,0,0,.644,3.947.413.413,0,0,0,.34.179l-.848,8.655a1.3,1.3,0,1,0,2.586,0Z" transform="translate(-342.399)" fill="#4b4b4b"/>
  </g>
</svg>
