<svg xmlns="http://www.w3.org/2000/svg" width="24.65" height="19.697" viewBox="0 0 24.65 19.697">
  <g id="review" transform="translate(0 -37.472)">
    <g id="Group_497" data-name="Group 497" transform="translate(3.417 42.541)">
      <g id="Group_496" data-name="Group 496" transform="translate(0 0)">
        <path id="Path_177" data-name="Path 177" d="M57.083,115.091A3.149,3.149,0,1,0,58,117.318,3.138,3.138,0,0,0,57.083,115.091Z" transform="translate(-51.707 -114.168)"/>
      </g>
    </g>
    <g id="Group_499" data-name="Group 499" transform="translate(0 49.867)">
      <g id="Group_498" data-name="Group 498" transform="translate(0 0)">
        <path id="Path_178" data-name="Path 178" d="M6.736,225.008H6.4a6.416,6.416,0,0,0-6.4,6.4v.452a.449.449,0,0,0,.449.449H12.685a.449.449,0,0,0,.449-.449v-.452A6.419,6.419,0,0,0,6.736,225.008Z" transform="translate(0 -225.008)"/>
      </g>
    </g>
    <g id="Group_501" data-name="Group 501" transform="translate(10.427 37.472)">
      <g id="Group_500" data-name="Group 500" transform="translate(0 0)">
        <path id="Path_179" data-name="Path 179" d="M169.847,39a8.877,8.877,0,0,0-9.951,0,4.8,4.8,0,0,0-2.136,3.833,4.23,4.23,0,0,0,.486,1.956,5.249,5.249,0,0,0,1.108,1.43l-1.129,2.345a.447.447,0,0,0,.64.574l2.6-1.6a8.54,8.54,0,0,0,1.528.463,9.364,9.364,0,0,0,1.882.19,8.439,8.439,0,0,0,4.975-1.525,4.505,4.505,0,0,0,0-7.664Zm-1.6,3.111v0h0a.447.447,0,0,1-.111.209l-1.153,1.322.153,1.774a.449.449,0,0,1-.658.436l-1.6-.674-1.639.7a.447.447,0,0,1-.621-.452l.153-1.774L161.6,42.3a.449.449,0,0,1,.238-.73l1.732-.4.917-1.512a.449.449,0,0,1,.772,0l.912,1.517,1.732.4A.449.449,0,0,1,168.243,42.109Z" transform="translate(-157.76 -37.472)"/>
      </g>
    </g>
  </g>
</svg>
