<svg id="grooming" xmlns="http://www.w3.org/2000/svg" width="23.053" height="20.261" viewBox="0 0 23.053 20.261">
  <g id="Group_645" data-name="Group 645" transform="translate(0 0)">
    <g id="Group_644" data-name="Group 644">
      <path id="Path_408" data-name="Path 408" d="M11.429,31.213a.676.676,0,0,0-1.109.183L4.226,44.629a3.335,3.335,0,0,0-.849-.122,3.377,3.377,0,1,0,3.377,3.377,3.333,3.333,0,0,0-.386-1.535l5.5-12.082A2.7,2.7,0,0,0,11.429,31.213ZM3.377,49.91A2.026,2.026,0,1,1,5.4,47.884,2.028,2.028,0,0,1,3.377,49.91Z" transform="translate(0 -31)" fill="#4b4b4b"/>
    </g>
  </g>
  <g id="Group_647" data-name="Group 647" transform="translate(8.104 11.448)">
    <g id="Group_646" data-name="Group 646">
      <path id="Path_409" data-name="Path 409" d="M183.377,287.33a3.334,3.334,0,0,0-.849.122l-1-2.181-1.456,3.2.32.7a3.333,3.333,0,0,0-.387,1.535,3.377,3.377,0,1,0,3.377-3.377Zm0,5.4a2.026,2.026,0,1,1,2.026-2.026A2.028,2.028,0,0,1,183.377,292.733Z" transform="translate(-180 -285.271)" fill="#4b4b4b"/>
    </g>
  </g>
  <g id="Group_649" data-name="Group 649" transform="translate(16.209 0)">
    <g id="Group_648" data-name="Group 648">
      <path id="Path_410" data-name="Path 410" d="M364.819,31h-4.142a.675.675,0,0,0,0,1.351h2.116V33.7h-2.116a.675.675,0,0,0,0,1.351h2.116V36.4h-2.116a.675.675,0,0,0,0,1.351h2.116V39.1h-2.116a.675.675,0,0,0,0,1.351h2.116v1.351h-2.116a.675.675,0,0,0,0,1.351h2.116v1.351h-2.116a.675.675,0,0,0,0,1.351h2.116v1.351h-2.116a.675.675,0,0,0,0,1.351h2.116V49.91h-2.116a.675.675,0,0,0,0,1.351h4.142a2.028,2.028,0,0,0,2.026-2.026V33.026A2.028,2.028,0,0,0,364.819,31Z" transform="translate(-360.001 -31)" fill="#4b4b4b"/>
    </g>
  </g>
  <g id="Group_651" data-name="Group 651" transform="translate(2.701 0)">
    <g id="Group_650" data-name="Group 650">
      <path id="Path_411" data-name="Path 411" d="M61.835,31.4a.676.676,0,0,0-1.109-.183,2.7,2.7,0,0,0-.441,3.053l2.249,4.938,1.448-3.145Z" transform="translate(-59.999 -31.001)" fill="#4b4b4b"/>
    </g>
  </g>
</svg>
