<svg id="assisten_wifi" xmlns="http://www.w3.org/2000/svg" width="24.65" height="19.428" viewBox="0 0 24.65 19.428">
  <path id="Path_36" data-name="Path 36" d="M63.055,75.45l1.082-1.08a.513.513,0,0,0-.017-.742,17.856,17.856,0,0,0-24.318.052.514.514,0,0,0-.015.74L40.869,75.5a.508.508,0,0,0,.705.016,15.31,15.31,0,0,1,20.784-.049A.509.509,0,0,0,63.055,75.45Z" transform="translate(-39.638 -68.875)" fill="#4b4b4b"/>
  <path id="Path_37" data-name="Path 37" d="M82.821,112.158l1.082-1.084a.512.512,0,0,0-.02-.744,12.752,12.752,0,0,0-17.088.051.514.514,0,0,0-.019.744l1.082,1.081a.512.512,0,0,0,.7.02,10.2,10.2,0,0,1,13.559-.047A.512.512,0,0,0,82.821,112.158Z" transform="translate(-63.02 -101.967)" fill="#4b4b4b"/>
  <path id="Path_38" data-name="Path 38" d="M102.634,148.9l1.085-1.086a.512.512,0,0,0-.029-.754,7.651,7.651,0,0,0-9.834.052.505.505,0,0,0-.025.75l1.085,1.085a.516.516,0,0,0,.691.031,5.1,5.1,0,0,1,6.343-.043A.516.516,0,0,0,102.634,148.9Z" transform="translate(-86.455 -135.082)" fill="#4b4b4b"/>
  <path id="Path_39" data-name="Path 39" d="M120.268,184.33a2.038,2.038,0,1,1-1.442-.6A2.04,2.04,0,0,1,120.268,184.33Z" transform="translate(-106.477 -168.385)" fill="#4b4b4b"/>
</svg>
